<?xml version="1.0" encoding="UTF-8"?>
<svg width="320px" height="320px" viewBox="0 0 320 320" version="1.1" xmlns="http://www.w3.org/2000/svg" xmlns:xlink="http://www.w3.org/1999/xlink">
    <title>画板备份 4</title>
    <g id="画板备份-4" stroke="none" stroke-width="1" fill="none" fill-rule="evenodd">
        <g id="编组" transform="translate(7.875000, 77.000000)">
            <path d="M109.89853,67.4425245 C126.834383,67.4425245 140.563604,81.1717457 140.563604,98.1075983 C140.563604,115.043451 126.834383,128.772672 109.89853,128.772672 L87.3946066,128.772524 L87.3949523,165.920842 L56.7596066,165.920842 L56.7596066,68.4038356 L67.9356066,68.4035245 L67.9357973,67.4425245 L109.89853,67.4425245 Z" id="形状结合" fill="#5E5E5E"></path>
            <rect id="矩形" fill="#3372C0" x="0" y="0" width="22.5" height="75"></rect>
            <path d="M110.009607,10.4756606 C126.992363,10.4756606 140.759607,20.3707887 140.759607,39.4397481 C140.759607,58.5087075 126.992363,68.4038356 110.009607,68.4038356 C93.0268506,68.4038356 79.2596066,58.8991221 79.2596066,39.4397481 C79.2596066,19.9803742 93.0268506,10.4756606 110.009607,10.4756606 Z M110.009607,27.6356024 C103.796403,27.6356024 98.7596066,33.3439719 98.7596066,40.3856024 C98.7596066,47.427233 103.796403,53.1356024 110.009607,53.1356024 C116.22281,53.1356024 121.259607,47.427233 121.259607,40.3856024 C121.259607,33.3439719 116.22281,27.6356024 110.009607,27.6356024 Z" id="形状结合" fill="#5E5E5E"></path>
            <rect id="矩形备份" fill="#3372C0" x="56.7596066" y="0" width="22.5" height="75"></rect>
            <rect id="矩形备份-2" fill="#5E5E5E" x="265.109607" y="70.65" width="16.05" height="45.3"></rect>
            <rect id="矩形" fill="#3372C0" x="21" y="27" width="37.5" height="18"></rect>
            <path d="M141.915413,12.9606344 C140.664888,35.4956504 140.841676,49.6890199 142.445777,55.5407428 C146.171192,65.351636 150.227817,68.4038356 161.8617,68.4038356 C169.617623,68.4038356 175.791226,64.991443 180.38251,58.1666576 L180.38251,68.4038356 L200.391386,68.4038356 L200.391386,12.9606344 L181.612705,12.9606344 L181.612705,45 C176.564716,50.8192451 172.328254,53.5311125 168.903318,53.1356024 C163.765914,52.5423373 160.721903,53.7288676 160.721903,40.682235 C160.721903,31.9844799 160.721903,22.7439464 160.721903,12.9606344 L141.915413,12.9606344 Z" id="路径" fill="#3372C0"></path>
            <path d="M241.498533,16.1887843 L241.498533,29.0304236 C229.928501,22.8137512 222.987361,21.5732588 220.675113,25.3089463 C217.206741,30.9124776 233.375001,34.1249222 239.788559,41.85252 C246.202116,49.5801178 247.895585,68.4038356 224.143485,68.4038356 C212.064426,68.6466071 204.323339,67.4113262 200.920224,64.6979929 L200.920224,51.0273278 C205.312638,54.017033 210.200695,55.5751349 215.584397,55.7016334 C223.65995,55.8913812 224.95732,54.2928454 224.95732,52.4254522 C224.95732,48.2593127 211.291595,46.9859631 204.376941,38.6379515 C197.462287,30.2899399 201.13639,12.1360283 218.96768,12.1360283 C227.85637,12.2521248 235.366655,13.6030434 241.498533,16.1887843 Z" id="路径-2" fill="#3372C0"></path>
            <path d="M242.837981,40.1082516 C242.883934,29.8660186 244.470867,10.512518 271.614301,11.2815492 C291.720549,11.851202 301.309718,23.1436369 300.381809,45.1588541 L300.381809,45.1588541 L262.195739,45.1588541 C264.097293,51.6605381 268.223282,55.1706828 274.573706,55.6892883 C285.063416,56.9467404 293.189274,55.4555418 298.95128,51.2156926 L298.95128,51.2156926 L298.95128,61.4076618 C292.731339,65.8710766 285.044924,68.2105472 275.892036,68.4260737 C251.402263,68.4260737 243.082494,54.5815511 242.846794,43.1447736 C242.846794,42.533705 242.839974,41.8478693 242.837633,41.1010212 Z M271.785335,23.6145211 C266.088831,23.6145211 262.545731,27.4434617 261.156034,35.1013428 L282.414636,35.1013428 C281.024939,27.4434617 277.481839,23.6145211 271.785335,23.6145211 Z" id="形状结合" fill="#3372C0"></path>
            <path d="M211.816036,92.4179992 C211.854251,83.9002649 213.173991,67.8053395 235.747248,68.4448879 C252.468179,68.9186274 260.442807,78.3097397 259.671131,96.6182249 L259.671131,96.6182249 L227.914502,96.6182249 C229.495888,102.025212 232.927179,104.944348 238.208373,105.375636 C246.931917,106.421369 253.689613,105.181245 258.481463,101.655265 L258.481463,101.655265 L258.481463,110.131199 C253.308781,113.843102 246.916538,115.788673 239.304734,115.967911 C218.938337,115.967911 212.01938,104.45441 211.823365,94.9432579 C211.823365,94.4350758 211.817693,93.8647151 211.815746,93.2436149 Z M235.889484,78.7013405 C231.152109,78.7013405 228.205565,81.8855972 227.049853,88.2541104 L244.729116,88.2541104 C243.573404,81.8855972 240.62686,78.7013405 235.889484,78.7013405 Z" id="形状结合备份" fill="#5E5E5E"></path>
            <g id="编组-2" transform="translate(79.259607, 75.000000)">
                <path d="M25.9438025,46.3184693 C40.2721689,46.3184693 51.8876049,38.5314276 51.8876049,23.1592347 C51.8876049,7.78704171 40.2721689,0 25.9438025,0 C11.615436,0 0,7.78704171 0,23.1592347 C0,38.5314276 11.615436,46.3184693 25.9438025,46.3184693 Z" id="椭圆形" fill="#3374B3"></path>
                <ellipse id="椭圆形" fill="#499EF3" cx="25.9438025" cy="23.1592347" rx="16.6519528" ry="16.4150388"></ellipse>
            </g>
            <polygon id="路径-6" fill="#5E5E5E" points="140.439754 71.55 156.337675 71.55 164.529629 94.0109808 173.541617 71.55 183.843984 71.55 192.152128 92.5982667 200.360281 71.55 216.508458 71.55 198.93863 116.466934 188.735695 116.466934 178.474106 92.5982667 168.834246 116.466934 158.352008 116.466934"></polygon>
            <path d="M281.159607,80.1662079 C285.050698,73.8220693 289.46206,70.65 294.393695,70.65 C299.325329,70.65 302.581946,72.1 304.163547,75 L298.062532,89.387986 C295.542632,85.4860473 292.702117,84.3215834 289.540985,85.8945942 C286.379854,87.467605 283.054145,90.9216638 279.563858,96.2567706 L279.563858,80.1662079 L281.159607,80.1662079 Z" id="路径-7" fill="#5E5E5E"></path>
        </g>
    </g>
</svg>