<?xml version="1.0" encoding="UTF-8"?>
<svg width="480px" height="480px" viewBox="0 0 480 480" version="1.1" xmlns="http://www.w3.org/2000/svg" xmlns:xlink="http://www.w3.org/1999/xlink">
    <title>画板备份 3</title>
    <g id="画板备份-3" stroke="none" stroke-width="1" fill="none" fill-rule="evenodd">
        <g id="编组" transform="translate(11.812500, 115.500000)">
            <path d="M164.847795,101.163787 C190.251574,101.163787 210.845406,121.757618 210.845406,147.161397 C210.845406,172.565176 190.251574,193.159008 164.847795,193.159008 L131.09241,193.158787 L131.092428,248.881264 L85.1394099,248.881264 L85.1394099,102.605753 L101.90341,102.604787 L101.903696,101.163787 L164.847795,101.163787 Z" id="形状结合" fill="#5E5E5E"></path>
            <rect id="矩形" fill="#3372C0" x="0" y="0" width="33.75" height="112.5"></rect>
            <path d="M165.01441,15.713491 C190.488544,15.713491 211.13941,30.5561831 211.13941,59.1596222 C211.13941,87.7630613 190.488544,102.605753 165.01441,102.605753 C139.540276,102.605753 118.88941,88.3486831 118.88941,59.1596222 C118.88941,29.9705613 139.540276,15.713491 165.01441,15.713491 Z M165.01441,41.4534036 C155.694605,41.4534036 148.13941,50.0159578 148.13941,60.5784036 C148.13941,71.1408495 155.694605,79.7034036 165.01441,79.7034036 C174.334215,79.7034036 181.88941,71.1408495 181.88941,60.5784036 C181.88941,50.0159578 174.334215,41.4534036 165.01441,41.4534036 Z" id="形状结合" fill="#5E5E5E"></path>
            <rect id="矩形备份" fill="#3372C0" x="85.1394099" y="0" width="33.75" height="112.5"></rect>
            <rect id="矩形备份-2" fill="#5E5E5E" x="397.66441" y="105.975" width="24.075" height="67.95"></rect>
            <rect id="矩形" fill="#3372C0" x="31.5" y="40.5" width="56.25" height="27"></rect>
            <path d="M212.87312,19.4409516 C210.997332,53.2434756 211.262514,74.5335298 213.668666,83.3111143 C219.256788,98.027454 225.341725,102.605753 242.792551,102.605753 C254.426434,102.605753 263.686839,97.4871644 270.573766,87.2499864 L270.573766,102.605753 L300.58708,102.605753 L300.58708,19.4409516 L272.419058,19.4409516 L272.419058,67.5 C264.847074,76.2288676 258.49238,80.2966688 253.354977,79.7034036 C245.648871,78.8135059 241.082854,80.5933014 241.082854,61.0233525 C241.082854,47.9767199 241.082854,34.1159196 241.082854,19.4409516 L212.87312,19.4409516 Z" id="路径" fill="#3372C0"></path>
            <path d="M362.2478,24.2831764 L362.2478,43.5456354 C344.892752,34.2206268 334.481042,32.3598882 331.01267,37.9634195 C325.810112,46.3687164 350.062501,51.1873833 359.682838,62.77878 C369.303175,74.3701768 371.843377,102.605753 336.215228,102.605753 C318.09664,102.969911 306.485009,101.116989 301.380336,97.0469893 L301.380336,76.5409917 C307.968956,81.0255495 315.301043,83.3627023 323.376596,83.5524501 C335.489925,83.8370718 337.43598,81.439268 337.43598,78.6381783 C337.43598,72.388969 316.937393,70.4789447 306.565412,57.9569273 C296.193431,45.4349099 301.704585,18.2040425 328.45152,18.2040425 C341.784555,18.3781872 353.049982,20.4045651 362.2478,24.2831764 Z" id="路径-2" fill="#3372C0"></path>
            <path d="M364.270191,64.7171604 C364.270191,51.6228343 362.182395,15.6406052 407.421452,16.9223238 C437.580823,17.776803 451.964577,34.7154554 450.572713,67.7382812 L450.572713,67.7382812 L393.293609,67.7382812 C396.145939,77.4908071 402.334922,82.7560242 411.860558,83.5339324 C427.595124,85.4201106 439.783911,83.1833127 448.426921,76.8235388 L448.426921,76.8235388 L448.426921,92.1114928 C439.097008,98.8066149 427.567386,102.315821 413.838054,102.639111 C377.103394,102.639111 364.623742,81.8723266 364.270191,64.7171604 Z M407.678003,35.4217817 C399.133247,35.4217817 393.818596,41.1651925 391.734051,52.6520142 L423.621954,52.6520142 C421.537409,41.1651925 416.222758,35.4217817 407.678003,35.4217817 Z" id="形状结合" fill="#3372C0"></path>
            <path d="M317.722814,139.048626 C317.741321,126.389994 319.384765,101.69735 353.620872,102.667332 C378.702269,103.377941 390.66421,117.46461 389.506697,144.927337 L389.506697,144.927337 L341.871753,144.927337 C344.243832,153.037817 349.390768,157.416523 357.31256,158.063453 C370.397875,159.632053 380.53442,157.771868 387.722194,152.482898 L387.722194,152.482898 L387.722194,165.196798 C379.963172,170.764654 370.374807,173.68301 358.957101,173.951867 C328.407506,173.951867 318.02907,156.681614 317.735047,142.414887 C317.735047,141.652614 317.726539,140.797073 317.723619,139.865422 Z M353.834227,118.052011 C346.728163,118.052011 342.308347,122.828396 340.57478,132.381166 L367.093673,132.381166 C365.360106,122.828396 360.94029,118.052011 353.834227,118.052011 Z" id="形状结合备份" fill="#5E5E5E"></path>
            <g id="编组-2" transform="translate(118.889410, 112.500000)">
                <path d="M38.9157037,69.477704 C60.4082534,69.477704 77.8314074,57.7971414 77.8314074,34.738852 C77.8314074,11.6805626 60.4082534,0 38.9157037,0 C17.423154,0 0,11.6805626 0,34.738852 C0,57.7971414 17.423154,69.477704 38.9157037,69.477704 Z" id="椭圆形" fill="#3374B3"></path>
                <ellipse id="椭圆形" fill="#499EF3" cx="38.9157037" cy="34.738852" rx="24.9779292" ry="24.6225582"></ellipse>
            </g>
            <polygon id="路径-6" fill="#5E5E5E" points="210.659631 107.325 234.506513 107.325 246.794444 141.016471 260.312425 107.325 275.765976 107.325 288.228192 138.8974 300.540422 107.325 324.762687 107.325 298.407945 174.700401 283.103542 174.700401 267.711159 138.8974 253.251369 174.700401 237.528012 174.700401"></polygon>
            <path d="M421.73941,120.249312 C427.576047,110.733104 434.193091,105.975 441.590542,105.975 C448.987993,105.975 453.872919,108.15 456.245321,112.5 L447.093799,134.081979 C443.313949,128.229071 439.053175,126.482375 434.311478,128.841891 C429.569781,131.201408 424.581217,136.382496 419.345787,144.385156 L419.345787,120.249312 L421.73941,120.249312 Z" id="路径-7" fill="#5E5E5E"></path>
        </g>
    </g>
</svg>