<?xml version="1.0" encoding="UTF-8"?>
<svg width="64px" height="64px" viewBox="0 0 64 64" version="1.1" xmlns="http://www.w3.org/2000/svg" xmlns:xlink="http://www.w3.org/1999/xlink">
    <title>画板备份 9</title>
    <g id="画板备份-9" stroke="none" stroke-width="1" fill="none" fill-rule="evenodd">
        <g id="编组" transform="translate(1.575000, 15.400000)">
            <path d="M21.979706,13.4885049 C25.3668765,13.4885049 28.1127207,16.2343491 28.1127207,19.6215197 C28.1127207,23.0086902 25.3668765,25.7545344 21.979706,25.7545344 L17.4789213,25.7545049 L17.4789905,33.1841685 L11.3519213,33.1841685 L11.3519213,13.6807671 L13.5869213,13.6805049 L13.5871595,13.4885049 L21.979706,13.4885049 Z" id="形状结合" fill="#5E5E5E"></path>
            <rect id="矩形" fill="#3372C0" x="0" y="0" width="4.5" height="15"></rect>
            <path d="M22.0019213,2.09513213 C25.3984725,2.09513213 28.1519213,4.07415775 28.1519213,7.88794963 C28.1519213,11.7017415 25.3984725,13.6807671 22.0019213,13.6807671 C18.6053701,13.6807671 15.8519213,11.7798244 15.8519213,7.88794963 C15.8519213,3.99607484 18.6053701,2.09513213 22.0019213,2.09513213 Z M22.0019213,5.52712048 C20.7592806,5.52712048 19.7519213,6.66879437 19.7519213,8.07712048 C19.7519213,9.4854466 20.7592806,10.6271205 22.0019213,10.6271205 C23.244562,10.6271205 24.2519213,9.4854466 24.2519213,8.07712048 C24.2519213,6.66879437 23.244562,5.52712048 22.0019213,5.52712048 Z" id="形状结合" fill="#5E5E5E"></path>
            <rect id="矩形备份" fill="#3372C0" x="11.3519213" y="0" width="4.5" height="15"></rect>
            <rect id="矩形备份-2" fill="#5E5E5E" x="53.0219213" y="14.13" width="3.21" height="9.06"></rect>
            <rect id="矩形" fill="#3372C0" x="4.2" y="5.4" width="7.5" height="3.6"></rect>
            <path d="M28.3830826,2.59212688 C28.1329776,7.09913008 28.1683352,9.93780398 28.4891555,11.1081486 C29.2342384,13.0703272 30.0455634,13.6807671 32.3723401,13.6807671 C33.9235246,13.6807671 35.1582452,12.9982886 36.0765021,11.6333315 L36.0765021,13.6807671 L40.0782773,13.6807671 L40.0782773,2.59212688 L36.3225411,2.59212688 L36.3225411,9 C35.3129432,10.163849 34.4656507,10.7062225 33.7806635,10.6271205 C32.7531828,10.5084675 32.1443805,10.7457735 32.1443805,8.136447 C32.1443805,6.39689599 32.1443805,4.54878928 32.1443805,2.59212688 L28.3830826,2.59212688 Z" id="路径" fill="#3372C0"></path>
            <path d="M48.2997067,3.23775685 L48.2997067,5.80608471 C45.9857003,4.56275024 44.5974723,4.31465176 44.1350227,5.06178926 C43.4413483,6.18249552 46.6750001,6.82498444 47.9577117,8.370504 C49.2404233,9.91602357 49.5791169,13.6807671 44.8286971,13.6807671 C42.4128853,13.7293214 40.8646679,13.4822652 40.1840448,12.9395986 L40.1840448,10.2054656 C41.0625275,10.8034066 42.040139,11.115027 43.1168794,11.1403267 C44.73199,11.1782762 44.991464,10.8585691 44.991464,10.4850904 C44.991464,9.65186253 42.2583191,9.39719262 40.8753883,7.7275903 C39.4924574,6.05798798 40.2272779,2.42720567 43.793536,2.42720567 C45.571274,2.45042496 47.0733309,2.72060869 48.2997067,3.23775685 Z" id="路径-2" fill="#3372C0"></path>
            <path d="M54.021561,2.25186316 L54.3228603,2.25630985 C58.3441098,2.37024039 60.2619436,4.62872739 60.0763618,9.03177082 L60.0763618,9.03177082 L52.4391479,9.03177082 C52.8194586,10.3321076 53.6446563,11.0341366 54.9147411,11.1378577 C57.0126832,11.3893481 58.6378549,11.0911084 59.7902561,10.2431385 L59.7902561,10.2431385 L59.7902561,12.2815324 C58.5462678,13.1742153 57.0089848,13.6421094 55.1784071,13.6852147 C50.2804525,13.6852147 48.6164989,10.9163102 48.5693588,8.62895472 L48.5693588,8.62895472 L48.5680658,8.34001348 C48.5573646,6.40799589 48.5976915,2.09410364 54.3228603,2.25630985 Z M54.357067,4.72290423 C53.2177663,4.72290423 52.5091462,5.48869234 52.2312068,7.02026856 L56.4829272,7.02026856 C56.2049878,5.48869234 55.4963678,4.72290423 54.357067,4.72290423 Z" id="形状结合" fill="#3372C0"></path>
            <path d="M46.8761315,13.6852906 L47.1494496,13.6889776 C50.4936358,13.7837255 52.0885614,15.6619479 51.9342262,19.323645 L51.9342262,19.323645 L45.5829004,19.323645 C45.8991777,20.4050423 46.5854357,20.9888697 47.6416746,21.0751271 C49.3863833,21.2842738 50.7379226,21.0362491 51.6962925,20.331053 L51.6962925,20.331053 L51.6962925,22.0262398 C50.6617562,22.7686205 49.3833077,23.1577346 47.8609468,23.1935822 C43.7876675,23.1935822 42.403876,20.8908819 42.3646729,18.9886516 C42.3646729,18.9348757 42.3643554,18.8776185 42.3639986,18.8172188 L42.3636149,18.4198217 C42.3780153,16.701082 42.6905345,13.562647 47.1494496,13.6889776 Z M47.1778969,15.7402681 C46.2304217,15.7402681 45.641113,16.3771194 45.4099706,17.6508221 L48.9458231,17.6508221 C48.7146808,16.3771194 48.125372,15.7402681 47.1778969,15.7402681 Z" id="形状结合备份" fill="#5E5E5E"></path>
            <g id="编组-2" transform="translate(15.851921, 15.000000)">
                <path d="M5.18876049,9.26369387 C8.05443378,9.26369387 10.377521,7.70628552 10.377521,4.63184693 C10.377521,1.55740834 8.05443378,0 5.18876049,0 C2.3230872,0 0,1.55740834 0,4.63184693 C0,7.70628552 2.3230872,9.26369387 5.18876049,9.26369387 Z" id="椭圆形" fill="#3374B3"></path>
                <ellipse id="椭圆形" fill="#499EF3" cx="5.18876049" cy="4.63184693" rx="3.33039056" ry="3.28300776"></ellipse>
            </g>
            <polygon id="路径-6" fill="#5E5E5E" points="28.0879508 14.31 31.2675351 14.31 32.9059259 18.8021962 34.7083234 14.31 36.7687967 14.31 38.4304256 18.5196533 40.0720563 14.31 43.3016916 14.31 39.7877259 23.2933868 37.7471389 23.2933868 35.6948212 18.5196533 33.7668492 23.2933868 31.6704016 23.2933868"></polygon>
            <path d="M56.2319213,16.0332416 C57.0101396,14.7644139 57.8924121,14.13 58.8787389,14.13 C59.8650658,14.13 60.5163893,14.42 60.8327094,15 L59.6125065,17.8775972 C59.1085265,17.0972095 58.5404233,16.8643167 57.9081971,17.1789188 C57.2759708,17.493521 56.610829,18.1843328 55.9127716,19.2513541 L55.9127716,16.0332416 L56.2319213,16.0332416 Z" id="路径-7" fill="#5E5E5E"></path>
        </g>
    </g>
</svg>