<?xml version="1.0" encoding="UTF-8"?>
<svg width="160px" height="160px" viewBox="0 0 160 160" version="1.1" xmlns="http://www.w3.org/2000/svg" xmlns:xlink="http://www.w3.org/1999/xlink">
    <title>画板备份 5</title>
    <g id="画板备份-5" stroke="none" stroke-width="1" fill="none" fill-rule="evenodd">
        <g id="编组" transform="translate(3.937500, 38.500000)">
            <path d="M54.949265,33.7212622 C63.4171913,33.7212622 70.2818019,40.5858728 70.2818019,49.0537991 C70.2818019,57.5217255 63.4171913,64.3863361 54.949265,64.3863361 L43.6968033,64.3862622 L43.6974762,82.9604212 L28.3798033,82.9604212 L28.3798033,34.2019178 L33.9678033,34.2012622 L33.9678987,33.7212622 L54.949265,33.7212622 Z" id="形状结合" fill="#5E5E5E"></path>
            <rect id="矩形" fill="#3372C0" x="0" y="0" width="11.25" height="37.5"></rect>
            <path d="M55.0048033,5.23783032 C63.4961813,5.23783032 70.3798033,10.1853944 70.3798033,19.7198741 C70.3798033,29.2543538 63.4961813,34.2019178 55.0048033,34.2019178 C46.5134253,34.2019178 39.6298033,29.449561 39.6298033,19.7198741 C39.6298033,9.99018709 46.5134253,5.23783032 55.0048033,5.23783032 Z M55.0048033,13.8178012 C51.8982016,13.8178012 49.3798033,16.6719859 49.3798033,20.1928012 C49.3798033,23.7136165 51.8982016,26.5678012 55.0048033,26.5678012 C58.111405,26.5678012 60.6298033,23.7136165 60.6298033,20.1928012 C60.6298033,16.6719859 58.111405,13.8178012 55.0048033,13.8178012 Z" id="形状结合" fill="#5E5E5E"></path>
            <rect id="矩形备份" fill="#3372C0" x="28.3798033" y="0" width="11.25" height="37.5"></rect>
            <rect id="矩形备份-2" fill="#5E5E5E" x="132.554803" y="35.325" width="8.025" height="22.65"></rect>
            <rect id="矩形" fill="#3372C0" x="10.5" y="13.5" width="18.75" height="9"></rect>
            <path d="M70.9577065,6.48031719 C70.3324439,17.7478252 70.420838,24.8445099 71.2228886,27.7703714 C73.085596,32.675818 75.1139084,34.2019178 80.9308502,34.2019178 C84.8088114,34.2019178 87.895613,32.4957215 90.1912552,29.0833288 L90.1912552,34.2019178 L100.195693,34.2019178 L100.195693,6.48031719 L90.8063527,6.48031719 L90.8063527,22.5 C88.2823581,25.4096225 86.1641268,26.7655563 84.4516589,26.5678012 C81.882957,26.2711686 80.3609513,26.8644338 80.3609513,20.3411175 C80.3609513,15.99224 80.3609513,11.3719732 80.3609513,6.48031719 L70.9577065,6.48031719 Z" id="路径" fill="#3372C0"></path>
            <path d="M120.749267,8.09439213 L120.749267,14.5152118 C114.964251,11.4068756 111.493681,10.7866294 110.337557,12.6544732 C108.603371,15.4562388 116.6875,17.0624611 119.894279,20.92626 C123.101058,24.7900589 123.947792,34.2019178 112.071743,34.2019178 C106.032213,34.3233035 102.16167,33.7056631 100.460112,32.3489964 L100.460112,25.5136639 C102.656319,27.0085165 105.100348,27.7875674 107.792199,27.8508167 C111.829975,27.9456906 112.47866,27.1464227 112.47866,26.2127261 C112.47866,24.1296563 105.645798,23.4929816 102.188471,19.3189758 C98.7311436,15.14497 100.568195,6.06801417 109.48384,6.06801417 C113.928185,6.12606239 117.683327,6.80152171 120.749267,8.09439213 Z" id="路径-2" fill="#3372C0"></path>
            <path d="M121.418991,20.0541258 C121.441967,14.9330093 122.235434,5.25625902 135.807151,5.64077462 C145.860274,5.92560098 150.654859,11.5718185 150.190904,22.5794271 L150.190904,22.5794271 L131.09787,22.5794271 C132.048646,25.830269 134.111641,27.5853414 137.286853,27.8446441 C142.531708,28.4733702 146.594637,27.7277709 149.47564,25.6078463 L149.47564,25.6078463 L149.47564,30.7038309 C146.365669,32.9355383 142.522462,34.1052736 137.946018,34.2130369 C125.701131,34.2130369 121.541247,27.2907755 121.423397,21.5723868 C121.423397,21.3105003 121.420892,21.0211483 121.419439,20.7086617 Z M135.892668,11.8072606 C133.044416,11.8072606 131.272865,13.7217308 130.578017,17.5506714 L141.207318,17.5506714 C140.51247,13.7217308 138.740919,11.8072606 135.892668,11.8072606 Z" id="形状结合" fill="#3372C0"></path>
            <path d="M105.908158,46.1799694 C105.930173,41.9136791 106.612589,33.9033949 117.873624,34.2224439 C126.23409,34.4593137 130.221403,39.1548699 129.835566,48.3091125 L129.835566,48.3091125 L113.957251,48.3091125 C114.747944,51.0126058 116.463589,52.4721742 119.104187,52.6878178 C123.465958,53.2106844 126.844807,52.5906227 129.240731,50.8276326 L129.240731,50.8276326 L129.240731,55.0655994 C126.654391,56.9215512 123.458269,57.8943366 119.652367,57.9839556 C109.469169,57.9839556 106.00969,52.2272048 105.911682,47.4716289 C105.911682,47.2864314 105.910176,47.0847179 105.908982,46.8687031 Z M117.944742,39.3506703 C115.576054,39.3506703 114.102782,40.9427986 113.524927,44.1270552 L122.364558,44.1270552 C121.786702,40.9427986 120.31343,39.3506703 117.944742,39.3506703 Z" id="形状结合备份" fill="#5E5E5E"></path>
            <g id="编组-2" transform="translate(39.629803, 37.500000)">
                <path d="M12.9719012,23.1592347 C20.1360845,23.1592347 25.9438025,19.2657138 25.9438025,11.5796173 C25.9438025,3.89352086 20.1360845,0 12.9719012,0 C5.807718,0 0,3.89352086 0,11.5796173 C0,19.2657138 5.807718,23.1592347 12.9719012,23.1592347 Z" id="椭圆形" fill="#3374B3"></path>
                <ellipse id="椭圆形" fill="#499EF3" cx="12.9719012" cy="11.5796173" rx="8.32597639" ry="8.20751939"></ellipse>
            </g>
            <polygon id="路径-6" fill="#5E5E5E" points="70.2198771 35.775 78.1688377 35.775 82.2648147 47.0054904 86.7708084 35.775 91.9219918 35.775 96.0760639 46.2991333 100.180141 35.775 108.254229 35.775 99.4693149 58.233467 94.3678474 58.233467 89.2370531 46.2991333 84.4171229 58.233467 79.1760039 58.233467"></polygon>
            <path d="M140.579803,40.083104 C142.525349,36.9110347 144.73103,35.325 147.196847,35.325 C149.662664,35.325 151.290973,36.05 152.081774,37.5 L149.031266,44.693993 C147.771316,42.7430237 146.351058,42.1607917 144.770493,42.9472971 C143.189927,43.7338025 141.527072,45.4608319 139.781929,48.1283853 L139.781929,40.083104 L140.579803,40.083104 Z" id="路径-7" fill="#5E5E5E"></path>
        </g>
    </g>
</svg>