<?xml version="1.0" encoding="UTF-8"?>
<svg width="640px" height="640px" viewBox="0 0 640 640" version="1.1" xmlns="http://www.w3.org/2000/svg" xmlns:xlink="http://www.w3.org/1999/xlink">
    <title>画板备份 2</title>
    <g id="画板备份-2" stroke="none" stroke-width="1" fill="none" fill-rule="evenodd">
        <g id="编组" transform="translate(15.750000, 154.000000)">
            <path d="M219.79706,134.885049 C253.668765,134.885049 281.127207,162.343491 281.127207,196.215197 C281.127207,230.086902 253.668765,257.545344 219.79706,257.545344 L174.789213,257.545049 L174.789905,331.841685 L113.519213,331.841685 L113.519213,136.807671 L135.871213,136.807049 L135.871595,134.885049 L219.79706,134.885049 Z" id="形状结合" fill="#5E5E5E"></path>
            <rect id="矩形" fill="#3372C0" x="0" y="0" width="45" height="150"></rect>
            <path d="M220.019213,20.9513213 C253.984725,20.9513213 281.519213,40.7415775 281.519213,78.8794963 C281.519213,117.017415 253.984725,136.807671 220.019213,136.807671 C186.053701,136.807671 158.519213,117.798244 158.519213,78.8794963 C158.519213,39.9607484 186.053701,20.9513213 220.019213,20.9513213 Z M220.019213,55.2712048 C207.592806,55.2712048 197.519213,66.6879437 197.519213,80.7712048 C197.519213,94.854466 207.592806,106.271205 220.019213,106.271205 C232.44562,106.271205 242.519213,94.854466 242.519213,80.7712048 C242.519213,66.6879437 232.44562,55.2712048 220.019213,55.2712048 Z" id="形状结合" fill="#5E5E5E"></path>
            <rect id="矩形备份" fill="#3372C0" x="113.519213" y="0" width="45" height="150"></rect>
            <rect id="矩形备份-2" fill="#5E5E5E" x="530.219213" y="141.3" width="32.1" height="90.6"></rect>
            <rect id="矩形" fill="#3372C0" x="42" y="54" width="75" height="36"></rect>
            <path d="M283.830826,25.9212688 C281.329776,70.9913008 281.683352,99.3780398 284.891555,111.081486 C292.342384,130.703272 300.455634,136.807671 323.723401,136.807671 C339.235246,136.807671 351.582452,129.982886 360.765021,116.333315 L360.765021,136.807671 L400.782773,136.807671 L400.782773,25.9212688 L363.225411,25.9212688 L363.225411,90 C353.129432,101.63849 344.656507,107.062225 337.806635,106.271205 C327.531828,105.084675 321.443805,107.457735 321.443805,81.36447 C321.443805,63.9689599 321.443805,45.4878928 321.443805,25.9212688 L283.830826,25.9212688 Z" id="路径" fill="#3372C0"></path>
            <path d="M482.997067,32.3775685 L482.997067,58.0608471 C459.857003,45.6275024 445.974723,43.1465176 441.350227,50.6178926 C434.413483,61.8249552 466.750001,68.2498444 479.577117,83.70504 C492.404233,99.1602357 495.791169,136.807671 448.286971,136.807671 C424.128853,137.293214 408.646679,134.822652 401.840448,129.395986 L401.840448,102.054656 C410.625275,108.034066 420.40139,111.15027 431.168794,111.403267 C447.3199,111.782762 449.91464,108.585691 449.91464,104.850904 C449.91464,96.5186253 422.583191,93.9719262 408.753883,77.275903 C394.924574,60.5798798 402.272779,24.2720567 437.93536,24.2720567 C455.71274,24.5042496 470.733309,27.2060869 482.997067,32.3775685 Z" id="路径-2" fill="#3372C0"></path>
            <path d="M485.693588,86.2895472 C485.693588,68.8304457 482.90986,20.8541403 543.228603,22.5630985 C583.441098,23.7024039 602.619436,46.2872739 600.763618,90.3177082 L600.763618,90.3177082 L524.391479,90.3177082 C528.194586,103.321076 536.446563,110.341366 549.147411,111.378577 C570.126832,113.893481 586.378549,110.911084 597.902561,102.431385 L597.902561,102.431385 L597.902561,122.815324 C585.462678,131.742153 570.089848,136.421094 551.784071,136.852147 C502.804525,136.852147 486.164989,109.163102 485.693588,86.2895472 Z M543.57067,47.2290423 C532.177663,47.2290423 525.091462,54.8869234 522.312068,70.2026856 L564.829272,70.2026856 C562.049878,54.8869234 554.963678,47.2290423 543.57067,47.2290423 Z" id="形状结合" fill="#3372C0"></path>
            <path d="M423.646729,189.886516 C423.646729,175.367027 421.331702,135.468557 471.494496,136.889776 C504.936358,137.837255 520.885614,156.619479 519.342262,193.23645 L519.342262,193.23645 L455.829004,193.23645 C458.991777,204.050423 465.854357,209.888697 476.416746,210.751271 C493.863833,212.842738 507.379226,210.362491 516.962925,203.31053 L516.962925,203.31053 L516.962925,220.262398 C506.617562,227.686205 493.833077,231.577346 478.609468,231.935822 C437.876675,231.935822 424.03876,208.908819 423.646729,189.886516 Z M471.778969,157.402681 C462.304217,157.402681 456.41113,163.771194 454.099706,176.508221 L489.458231,176.508221 C487.146808,163.771194 481.25372,157.402681 471.778969,157.402681 Z" id="形状结合备份" fill="#5E5E5E"></path>
            <g id="编组-2" transform="translate(158.519213, 150.000000)">
                <path d="M51.8876049,92.6369387 C80.5443378,92.6369387 103.77521,77.0628552 103.77521,46.3184693 C103.77521,15.5740834 80.5443378,0 51.8876049,0 C23.230872,0 0,15.5740834 0,46.3184693 C0,77.0628552 23.230872,92.6369387 51.8876049,92.6369387 Z" id="椭圆形" fill="#3374B3"></path>
                <ellipse id="椭圆形" fill="#499EF3" cx="51.8876049" cy="46.3184693" rx="33.3039056" ry="32.8300776"></ellipse>
            </g>
            <polygon id="路径-6" fill="#5E5E5E" points="280.879508 143.1 312.675351 143.1 329.059259 188.021962 347.083234 143.1 367.687967 143.1 384.304256 185.196533 400.720563 143.1 433.016916 143.1 397.877259 232.933868 377.471389 232.933868 356.948212 185.196533 337.668492 232.933868 316.704016 232.933868"></polygon>
            <path d="M562.319213,160.332416 C570.101396,147.644139 578.924121,141.3 588.787389,141.3 C598.650658,141.3 605.163893,144.2 608.327094,150 L596.125065,178.775972 C591.085265,170.972095 585.404233,168.643167 579.081971,171.789188 C572.759708,174.93521 566.10829,181.843328 559.127716,192.513541 L559.127716,160.332416 L562.319213,160.332416 Z" id="路径-7" fill="#5E5E5E"></path>
        </g>
    </g>
</svg>