<?xml version="1.0" encoding="UTF-8"?>
<svg width="16px" height="16px" viewBox="0 0 16 16" version="1.1" xmlns="http://www.w3.org/2000/svg" xmlns:xlink="http://www.w3.org/1999/xlink">
    <title>画板备份 11</title>
    <g id="画板备份-11" stroke="none" stroke-width="1" fill="none" fill-rule="evenodd">
        <g id="编组" transform="translate(0.393750, 3.850000)">
            <path d="M5.4949265,3.37212622 C6.34171913,3.37212622 7.02818019,4.05858728 7.02818019,4.90537991 C7.02818019,5.75217255 6.34171913,6.43863361 5.4949265,6.43863361 L4.36898033,6.43812622 L4.36974762,8.29604212 L2.83798033,8.29604212 L2.83798033,3.42019178 L3.39598033,3.42012622 L3.39678987,3.37212622 L5.4949265,3.37212622 Z" id="形状结合" fill="#5E5E5E"></path>
            <rect id="矩形" fill="#3372C0" x="0" y="0" width="1.125" height="3.75"></rect>
            <path d="M5.50048033,0.523783032 C6.34961813,0.523783032 7.03798033,1.01853944 7.03798033,1.97198741 C7.03798033,2.92543538 6.34961813,3.42019178 5.50048033,3.42019178 C4.65134253,3.42019178 3.96298033,2.9449561 3.96298033,1.97198741 C3.96298033,0.999018709 4.65134253,0.523783032 5.50048033,0.523783032 Z M5.50048033,1.38178012 C5.18982016,1.38178012 4.93798033,1.66719859 4.93798033,2.01928012 C4.93798033,2.37136165 5.18982016,2.65678012 5.50048033,2.65678012 C5.8111405,2.65678012 6.06298033,2.37136165 6.06298033,2.01928012 C6.06298033,1.66719859 5.8111405,1.38178012 5.50048033,1.38178012 Z" id="形状结合" fill="#5E5E5E"></path>
            <rect id="矩形备份" fill="#3372C0" x="2.83798033" y="0" width="1.125" height="3.75"></rect>
            <rect id="矩形备份-2" fill="#5E5E5E" x="13.2554803" y="3.5325" width="1" height="2.265"></rect>
            <rect id="矩形" fill="#3372C0" x="1.05" y="1.35" width="1.875" height="1"></rect>
            <path d="M7.09577065,0.648031719 C7.03324439,1.77478252 7.0420838,2.48445099 7.12228886,2.77703714 C7.3085596,3.2675818 7.51139084,3.42019178 8.09308502,3.42019178 C8.48088114,3.42019178 8.7895613,3.24957215 9.01912552,2.90833288 L9.01912552,3.42019178 L10.0195693,3.42019178 L10.0195693,0.648031719 L9.08063527,0.648031719 L9.08063527,2.25 C8.82823581,2.54096225 8.61641268,2.67655563 8.44516589,2.65678012 C8.1882957,2.62711686 8.03609513,2.68644338 8.03609513,2.03411175 C8.03609513,1.599224 8.03609513,1.13719732 8.03609513,0.648031719 L7.09577065,0.648031719 Z" id="路径" fill="#3372C0"></path>
            <path d="M12.0749267,0.809439213 L12.0749267,1.45152118 C11.4964251,1.14068756 11.1493681,1.07866294 11.0337557,1.26544732 C10.8603371,1.54562388 11.66875,1.70624611 11.9894279,2.092626 C12.3101058,2.47900589 12.3947792,3.42019178 11.2071743,3.42019178 C10.6032213,3.43233035 10.216167,3.37056631 10.0460112,3.23489964 L10.0460112,2.55136639 C10.2656319,2.70085165 10.5100348,2.77875674 10.7792199,2.78508167 C11.1829975,2.79456906 11.247866,2.71464227 11.247866,2.62127261 C11.247866,2.41296563 10.5645798,2.34929816 10.2188471,1.93189758 C9.87311436,1.514497 10.0568195,0.606801417 10.948384,0.606801417 C11.3928185,0.612606239 11.7683327,0.680152171 12.0749267,0.809439213 Z" id="路径-2" fill="#3372C0"></path>
            <path d="M13.5807151,0.564077462 C14.5860274,0.592560098 15.0654859,1.15718185 15.0190904,2.25794271 L15.0190904,2.25794271 L13.109787,2.25794271 C13.2048646,2.5830269 13.4111641,2.75853414 13.7286853,2.78446441 C14.2531708,2.84733702 14.6594637,2.77277709 14.947564,2.56078463 L14.947564,2.56078463 L14.947564,3.07038309 C14.6365669,3.29355383 14.2522462,3.41052736 13.7946018,3.42130369 C12.5701131,3.42130369 12.1541247,2.72907755 12.1423397,2.15723868 L12.1423397,2.15723868 L12.1421796,1.97061293 C12.1483542,1.45079001 12.2537027,0.526480381 13.5807151,0.564077462 Z M13.5892668,1.18072606 C13.3044416,1.18072606 13.1272865,1.37217308 13.0578017,1.75506714 L14.1207318,1.75506714 C14.051247,1.37217308 13.8740919,1.18072606 13.5892668,1.18072606 Z" id="形状结合" fill="#3372C0"></path>
            <path d="M11.7873624,3.42224439 C12.623409,3.44593137 13.0221403,3.91548699 12.9835566,4.83091125 L12.9835566,4.83091125 L11.3957251,4.83091125 C11.4747944,5.10126058 11.6463589,5.24721742 11.9104187,5.26878178 C12.3465958,5.32106844 12.6844807,5.25906227 12.9240731,5.08276326 L12.9240731,5.08276326 L12.9240731,5.50655994 C12.6654391,5.69215512 12.3458269,5.78943366 11.9652367,5.79839556 C10.9469169,5.79839556 10.600969,5.22272048 10.5911682,4.74716289 L10.5911682,4.74716289 L10.5912541,4.57644133 C10.5983907,4.1415428 10.6968669,3.39134834 11.7873624,3.42224439 Z M11.7944742,3.93506703 C11.5576054,3.93506703 11.4102782,4.09427986 11.3524927,4.41270552 L12.2364558,4.41270552 C12.1786702,4.09427986 12.031343,3.93506703 11.7944742,3.93506703 Z" id="形状结合备份" fill="#5E5E5E"></path>
            <g id="编组-2" transform="translate(3.962980, 3.750000)">
                <path d="M1.29719012,2.31592347 C2.01360845,2.31592347 2.59438025,1.92657138 2.59438025,1.15796173 C2.59438025,0.389352086 2.01360845,0 1.29719012,0 C0.5807718,0 0,0.389352086 0,1.15796173 C0,1.92657138 0.5807718,2.31592347 1.29719012,2.31592347 Z" id="椭圆形" fill="#3374B3"></path>
                <ellipse id="椭圆形" fill="#499EF3" cx="1.29719012" cy="1.15796173" rx="1" ry="1"></ellipse>
            </g>
            <polygon id="路径-6" fill="#5E5E5E" points="7.02198771 3.5775 7.81688377 3.5775 8.22648147 4.70054904 8.67708084 3.5775 9.19219918 3.5775 9.60760639 4.62991333 10.0180141 3.5775 10.8254229 3.5775 9.94693149 5.8233467 9.43678474 5.8233467 8.92370531 4.62991333 8.44171229 5.8233467 7.91760039 5.8233467"></polygon>
            <path d="M14.0579803,4.0083104 C14.2525349,3.69110347 14.473103,3.5325 14.7196847,3.5325 C14.9662664,3.5325 15.1290973,3.605 15.2081774,3.75 L14.9031266,4.4693993 C14.7771316,4.27430237 14.6351058,4.21607917 14.4770493,4.29472971 C14.3189927,4.37338025 14.1527072,4.54608319 13.9781929,4.81283853 L13.9781929,4.0083104 L14.0579803,4.0083104 Z" id="路径-7" fill="#5E5E5E"></path>
        </g>
    </g>
</svg>