<?xml version="1.0" encoding="UTF-8"?>
<svg width="32px" height="32px" viewBox="0 0 32 32" version="1.1" xmlns="http://www.w3.org/2000/svg" xmlns:xlink="http://www.w3.org/1999/xlink">
    <title>画板备份 10</title>
    <g id="画板备份-10" stroke="none" stroke-width="1" fill="none" fill-rule="evenodd">
        <g id="编组" transform="translate(0.787500, 7.700000)">
            <path d="M10.989853,6.74425245 C12.6834383,6.74425245 14.0563604,8.11717457 14.0563604,9.81075983 C14.0563604,11.5043451 12.6834383,12.8772672 10.989853,12.8772672 L8.73896066,12.8772524 L8.73949523,16.5920842 L5.67596066,16.5920842 L5.67596066,6.84038356 L6.79296066,6.84025245 L6.79357973,6.74425245 L10.989853,6.74425245 Z" id="形状结合" fill="#5E5E5E"></path>
            <rect id="矩形" fill="#3372C0" x="0" y="0" width="2.25" height="7.5"></rect>
            <path d="M11.0009607,1.04756606 C12.6992363,1.04756606 14.0759607,2.03707887 14.0759607,3.94397481 C14.0759607,5.85087075 12.6992363,6.84038356 11.0009607,6.84038356 C9.30268506,6.84038356 7.92596066,5.88991221 7.92596066,3.94397481 C7.92596066,1.99803742 9.30268506,1.04756606 11.0009607,1.04756606 Z M11.0009607,2.76356024 C10.3796403,2.76356024 9.87596066,3.33439719 9.87596066,4.03856024 C9.87596066,4.7427233 10.3796403,5.31356024 11.0009607,5.31356024 C11.622281,5.31356024 12.1259607,4.7427233 12.1259607,4.03856024 C12.1259607,3.33439719 11.622281,2.76356024 11.0009607,2.76356024 Z" id="形状结合" fill="#5E5E5E"></path>
            <rect id="矩形备份" fill="#3372C0" x="5.67596066" y="0" width="2.25" height="7.5"></rect>
            <rect id="矩形备份-2" fill="#5E5E5E" x="26.5109607" y="7.065" width="1.605" height="4.53"></rect>
            <rect id="矩形" fill="#3372C0" x="2.1" y="2.7" width="3.75" height="1.8"></rect>
            <path d="M14.1915413,1.29606344 C14.0664888,3.54956504 14.0841676,4.96890199 14.2445777,5.55407428 C14.6171192,6.5351636 15.0227817,6.84038356 16.18617,6.84038356 C16.9617623,6.84038356 17.5791226,6.4991443 18.038251,5.81666576 L18.038251,6.84038356 L20.0391386,6.84038356 L20.0391386,1.29606344 L18.1612705,1.29606344 L18.1612705,4.5 C17.6564716,5.08192451 17.2328254,5.35311125 16.8903318,5.31356024 C16.3765914,5.25423373 16.0721903,5.37288676 16.0721903,4.0682235 C16.0721903,3.19844799 16.0721903,2.27439464 16.0721903,1.29606344 L14.1915413,1.29606344 Z" id="路径" fill="#3372C0"></path>
            <path d="M24.1498533,1.61887843 L24.1498533,2.90304236 C22.9928501,2.28137512 22.2987361,2.15732588 22.0675113,2.53089463 C21.7206741,3.09124776 23.3375001,3.41249222 23.9788559,4.185252 C24.6202116,4.95801178 24.7895585,6.84038356 22.4143485,6.84038356 C21.2064426,6.86466071 20.4323339,6.74113262 20.0920224,6.46979929 L20.0920224,5.10273278 C20.5312638,5.4017033 21.0200695,5.55751349 21.5584397,5.57016334 C22.365995,5.58913812 22.495732,5.42928454 22.495732,5.24254522 C22.495732,4.82593127 21.1291595,4.69859631 20.4376941,3.86379515 C19.7462287,3.02899399 20.113639,1.21360283 21.896768,1.21360283 C22.785637,1.22521248 23.5366655,1.36030434 24.1498533,1.61887843 Z" id="路径-2" fill="#3372C0"></path>
            <path d="M26.9298248,1.12649717 L27.1614301,1.12815492 C29.1720549,1.1851202 30.1309718,2.31436369 30.0381809,4.51588541 L30.0381809,4.51588541 L26.2195739,4.51588541 C26.4097293,5.16605381 26.8223282,5.51706828 27.4573706,5.56892883 C28.5063416,5.69467404 29.3189274,5.54555418 29.895128,5.12156926 L29.895128,5.12156926 L29.895128,6.14076618 C29.2731339,6.58710766 28.5044924,6.82105472 27.5892036,6.84260737 C25.1402263,6.84260737 24.3082494,5.45815511 24.2846794,4.31447736 L24.2846794,4.31447736 L24.2849547,3.89977327 C24.3026761,2.85326521 24.5423268,1.05395016 27.1614301,1.12815492 Z M27.1785335,2.36145211 C26.6088831,2.36145211 26.2545731,2.74434617 26.1156034,3.51013428 L28.2414636,3.51013428 C28.1024939,2.74434617 27.7481839,2.36145211 27.1785335,2.36145211 Z" id="形状结合" fill="#3372C0"></path>
            <path d="M23.3538642,6.84362732 L23.5747248,6.84448879 C25.2468179,6.89186274 26.0442807,7.83097397 25.9671131,9.66182249 L25.9671131,9.66182249 L22.7914502,9.66182249 C22.9495888,10.2025212 23.2927179,10.4944348 23.8208373,10.5375636 C24.6931917,10.6421369 25.3689613,10.5181245 25.8481463,10.1655265 L25.8481463,10.1655265 L25.8481463,11.0131199 C25.3308781,11.3843102 24.6916538,11.5788673 23.9304734,11.5967911 C21.8938337,11.5967911 21.201938,10.445441 21.1823365,9.49432579 L21.1823365,9.49432579 L21.1821135,9.18034261 C21.1928267,8.31508775 21.370602,6.7820413 23.5747248,6.84448879 Z M23.5889484,7.87013405 C23.1152109,7.87013405 22.8205565,8.18855972 22.7049853,8.82541104 L24.4729116,8.82541104 C24.3573404,8.18855972 24.062686,7.87013405 23.5889484,7.87013405 Z" id="形状结合备份" fill="#5E5E5E"></path>
            <g id="编组-2" transform="translate(7.925961, 7.500000)">
                <path d="M2.59438025,4.63184693 C4.02721689,4.63184693 5.18876049,3.85314276 5.18876049,2.31592347 C5.18876049,0.778704171 4.02721689,0 2.59438025,0 C1.1615436,0 0,0.778704171 0,2.31592347 C0,3.85314276 1.1615436,4.63184693 2.59438025,4.63184693 Z" id="椭圆形" fill="#3374B3"></path>
                <ellipse id="椭圆形" fill="#499EF3" cx="2.59438025" cy="2.31592347" rx="1.66519528" ry="1.64150388"></ellipse>
            </g>
            <polygon id="路径-6" fill="#5E5E5E" points="14.0439754 7.155 15.6337675 7.155 16.4529629 9.40109808 17.3541617 7.155 18.3843984 7.155 19.2152128 9.25982667 20.0360281 7.155 21.6508458 7.155 19.893863 11.6466934 18.8735695 11.6466934 17.8474106 9.25982667 16.8834246 11.6466934 15.8352008 11.6466934"></polygon>
            <path d="M28.1159607,8.01662079 C28.5050698,7.38220693 28.946206,7.065 29.4393695,7.065 C29.9325329,7.065 30.2581946,7.21 30.4163547,7.5 L29.8062532,8.9387986 C29.5542632,8.54860473 29.2702117,8.43215834 28.9540985,8.58945942 C28.6379854,8.7467605 28.3054145,9.09216638 27.9563858,9.62567706 L27.9563858,8.01662079 L28.1159607,8.01662079 Z" id="路径-7" fill="#5E5E5E"></path>
        </g>
    </g>
</svg>