<?xml version="1.0" encoding="UTF-8"?>
<svg width="72px" height="72px" viewBox="0 0 72 72" version="1.1" xmlns="http://www.w3.org/2000/svg" xmlns:xlink="http://www.w3.org/1999/xlink">
    <title>画板备份 8</title>
    <g id="画板备份-8" stroke="none" stroke-width="1" fill="none" fill-rule="evenodd">
        <g id="编组" transform="translate(1.771875, 17.325000)">
            <path d="M24.7271692,15.174568 C28.5377361,15.174568 31.6268108,18.2636428 31.6268108,22.0742096 C31.6268108,25.8847765 28.5377361,28.9738512 24.7271692,28.9738512 L19.6629115,28.973568 L19.6638643,37.3321895 L12.7709115,37.3321895 L12.7709115,15.390863 L15.2849115,15.390568 L15.2855544,15.174568 L24.7271692,15.174568 Z" id="形状结合" fill="#5E5E5E"></path>
            <rect id="矩形" fill="#3372C0" x="0" y="0" width="5.0625" height="16.875"></rect>
            <path d="M24.7521615,2.35702364 C28.5732816,2.35702364 31.6709115,4.58342747 31.6709115,8.87394333 C31.6709115,13.1644592 28.5732816,15.390863 24.7521615,15.390863 C20.9310414,15.390863 17.8334115,13.2523025 17.8334115,8.87394333 C17.8334115,4.49558419 20.9310414,2.35702364 24.7521615,2.35702364 Z M24.7521615,6.21801055 C23.3541907,6.21801055 22.2209115,7.50239367 22.2209115,9.08676055 C22.2209115,10.6711274 23.3541907,11.9555105 24.7521615,11.9555105 C26.1501323,11.9555105 27.2834115,10.6711274 27.2834115,9.08676055 C27.2834115,7.50239367 26.1501323,6.21801055 24.7521615,6.21801055 Z" id="形状结合" fill="#5E5E5E"></path>
            <rect id="矩形备份" fill="#3372C0" x="12.7709115" y="0" width="5.0625" height="16.875"></rect>
            <rect id="矩形备份-2" fill="#5E5E5E" x="59.6496615" y="15.89625" width="3.61125" height="10.1925"></rect>
            <rect id="矩形" fill="#3372C0" x="4.725" y="6.075" width="8.4375" height="4.05"></rect>
            <path d="M31.9309679,2.91614274 C31.6495998,7.98652134 31.6893771,11.1800295 32.0502999,12.4966671 C32.8885182,14.7041181 33.8012588,15.390863 36.4188826,15.390863 C38.1639651,15.390863 39.5530259,14.6230747 40.5860648,13.087498 L40.5860648,15.390863 L45.088062,15.390863 L45.088062,2.91614274 L40.8628587,2.91614274 L40.8628587,10.125 C39.7270611,11.4343301 38.7738571,12.0445003 38.0032465,11.9555105 C36.8473306,11.8220259 36.1624281,12.0889952 36.1624281,9.15350288 C36.1624281,7.19650799 36.1624281,5.11738794 36.1624281,2.91614274 L31.9309679,2.91614274 Z" id="路径" fill="#3372C0"></path>
            <path d="M54.33717,3.64247646 L54.33717,6.5318453 C51.7339128,5.13309402 50.1721563,4.85398323 49.6519005,5.69451292 C48.8715168,6.95530746 52.5093751,7.67810749 53.9524257,9.416817 C55.3954762,11.1555265 55.7765065,15.390863 50.4322842,15.390863 C47.714496,15.4454866 45.9727513,15.1675484 45.2070504,14.5570484 L45.2070504,11.4811488 C46.1953434,12.1538324 47.2951564,12.5044053 48.5064894,12.5328675 C50.3234887,12.5755608 50.615397,12.2158902 50.615397,11.7957267 C50.615397,10.8583454 47.5406089,10.5718417 45.9848118,8.69353909 C44.4290146,6.81523648 45.2556877,2.73060638 49.267728,2.73060638 C51.2676833,2.75672808 52.9574973,3.06068477 54.33717,3.64247646 Z" id="路径-2" fill="#3372C0"></path>
            <path d="M60.8003019,2.53339601 L61.1132178,2.53834858 C65.6371235,2.66652044 67.7946866,5.20731831 67.585907,10.1607422 L67.585907,10.1607422 L58.9940414,10.1607422 C59.4218909,11.6236211 60.3502384,12.4134036 61.7790838,12.5300899 C64.1392686,12.8130166 65.9675867,12.4774969 67.2640381,11.5235308 L67.2640381,11.5235308 L67.2640381,13.8167239 C65.8645513,14.8209922 64.1351079,15.3473731 62.075708,15.3958666 C56.5655091,15.3958666 54.6935612,12.280849 54.6405286,9.70757406 C54.6405286,9.64619441 54.6402228,9.58146203 54.6398374,9.51365229 L54.6389878,8.951681 C54.6569477,6.62962593 55.0695626,2.36711898 61.1132178,2.53834858 Z M61.1517004,5.31326726 C59.8699871,5.31326726 59.0727895,6.17477888 58.7601077,7.89780213 L63.5432931,7.89780213 C63.2306113,6.17477888 62.4334137,5.31326726 61.1517004,5.31326726 Z" id="形状结合" fill="#3372C0"></path>
            <path d="M52.7515322,15.3959364 L53.0431308,15.4000998 C56.8053403,15.5066912 58.5996316,17.6196914 58.4260045,21.7391006 L58.4260045,21.7391006 L51.2807629,21.7391006 C51.6365749,22.9556726 52.4086152,23.6124784 53.596884,23.709518 C55.5596813,23.944808 57.080163,23.6657802 58.1583291,22.8724347 L58.1583291,22.8724347 L58.1583291,24.7795197 C56.9944757,25.614698 55.5562211,26.0524515 53.8435652,26.09278 C49.2611259,26.09278 47.7043605,23.5022422 47.6602571,21.362233 L47.6602571,21.362233 L47.6589914,21.0816881 C47.65881,21.0481233 47.6586483,21.0138012 47.6585396,20.9787624 L47.6587894,20.7602534 C47.670843,18.8353333 47.9938495,15.2570429 53.0431308,15.4000998 Z M53.075134,17.7078016 C52.0092245,17.7078016 51.3462521,18.4242594 51.086217,19.8571748 L55.064051,19.8571748 C54.8040158,18.4242594 54.1410435,17.7078016 53.075134,17.7078016 Z" id="形状结合备份" fill="#5E5E5E"></path>
            <g id="编组-2" transform="translate(17.833411, 16.875000)">
                <path d="M5.83735555,10.4216556 C9.06123801,10.4216556 11.6747111,8.66957121 11.6747111,5.2108278 C11.6747111,1.75208438 9.06123801,0 5.83735555,0 C2.6134731,0 0,1.75208438 0,5.2108278 C0,8.66957121 2.6134731,10.4216556 5.83735555,10.4216556 Z" id="椭圆形" fill="#3374B3"></path>
                <ellipse id="椭圆形" fill="#499EF3" cx="5.83735555" cy="5.2108278" rx="3.74668938" ry="3.69338373"></ellipse>
            </g>
            <polygon id="路径-6" fill="#5E5E5E" points="31.5989447 16.09875 35.1759769 16.09875 37.0191666 21.1524707 39.0468638 16.09875 41.3648963 16.09875 43.2342288 20.83461 45.0810633 16.09875 48.7144031 16.09875 44.7611917 26.2050602 42.4655313 26.2050602 40.1566739 20.83461 37.9877053 26.2050602 35.6292018 26.2050602"></polygon>
            <path d="M63.2609115,18.0373968 C64.136407,16.6099656 65.1289636,15.89625 66.2385813,15.89625 C67.348199,15.89625 68.0809379,16.2225 68.4367981,16.875 L67.0640698,20.1122969 C66.4970923,19.2343606 65.8579763,18.9723563 65.1467217,19.3262837 C64.4354671,19.6802111 63.6871826,20.4573744 62.9018681,21.6577734 L62.9018681,18.0373968 L63.2609115,18.0373968 Z" id="路径-7" fill="#5E5E5E"></path>
        </g>
    </g>
</svg>