<?xml version="1.0" encoding="UTF-8"?>
<svg width="120px" height="120px" viewBox="0 0 120 120" version="1.1" xmlns="http://www.w3.org/2000/svg" xmlns:xlink="http://www.w3.org/1999/xlink">
    <title>画板备份 6</title>
    <g id="画板备份-6" stroke="none" stroke-width="1" fill="none" fill-rule="evenodd">
        <g id="编组" transform="translate(2.953125, 28.875000)">
            <path d="M41.2119487,25.2909467 C47.5628934,25.2909467 52.7113514,30.4394046 52.7113514,36.7903494 C52.7113514,43.1412941 47.5628934,48.289752 41.2119487,48.289752 L32.7728525,48.2889467 L32.7731071,62.2203159 L21.2848525,62.2203159 L21.2848525,25.6514384 L25.4758525,25.6509467 L25.475924,25.2909467 L41.2119487,25.2909467 Z" id="形状结合" fill="#5E5E5E"></path>
            <rect id="矩形" fill="#3372C0" x="0" y="0" width="8.4375" height="28.125"></rect>
            <path d="M41.2536025,3.92837274 C47.622136,3.92837274 52.7848525,7.63904578 52.7848525,14.7899056 C52.7848525,21.9407653 47.622136,25.6514384 41.2536025,25.6514384 C34.885069,25.6514384 29.7223525,22.0871708 29.7223525,14.7899056 C29.7223525,7.49264032 34.885069,3.92837274 41.2536025,3.92837274 Z M41.2536025,10.3633509 C38.9236512,10.3633509 37.0348525,12.5039894 37.0348525,15.1446009 C37.0348525,17.7852124 38.9236512,19.9258509 41.2536025,19.9258509 C43.5835538,19.9258509 45.4723525,17.7852124 45.4723525,15.1446009 C45.4723525,12.5039894 43.5835538,10.3633509 41.2536025,10.3633509 Z" id="形状结合" fill="#5E5E5E"></path>
            <rect id="矩形备份" fill="#3372C0" x="21.2848525" y="0" width="8.4375" height="28.125"></rect>
            <rect id="矩形备份-2" fill="#5E5E5E" x="99.4161025" y="26.49375" width="6.01875" height="16.9875"></rect>
            <rect id="矩形" fill="#3372C0" x="7.875" y="10.125" width="14.0625" height="6.75"></rect>
            <path d="M53.2182799,4.86023789 C52.7493329,13.3108689 52.8156285,18.6333825 53.4171665,20.8277786 C54.814197,24.5068635 56.3354313,25.6514384 60.6981376,25.6514384 C63.6066085,25.6514384 65.9217098,24.3717911 67.6434414,21.8124966 L67.6434414,25.6514384 L75.1467699,25.6514384 L75.1467699,4.86023789 L68.1047645,4.86023789 L68.1047645,16.875 C66.2117685,19.0572169 64.6230951,20.0741672 63.3387441,19.9258509 C61.4122177,19.7033765 60.2707135,20.1483253 60.2707135,15.2558381 C60.2707135,11.99418 60.2707135,8.5289799 60.2707135,4.86023789 L53.2182799,4.86023789 Z" id="路径" fill="#3372C0"></path>
            <path d="M90.56195,6.0707941 L90.56195,10.8864088 C86.223188,8.5551567 83.6202606,8.08997205 82.7531675,9.49085487 C81.452528,11.5921791 87.5156252,12.7968458 89.9207095,15.694695 C92.3257937,18.5925442 92.9608442,25.6514384 84.0538071,25.6514384 C79.5241599,25.7424777 76.6212522,25.2792473 75.345084,24.2617473 L75.345084,19.1352479 C76.9922391,20.2563874 78.8252607,20.8406756 80.8441489,20.8881125 C83.8724812,20.959268 84.3589949,20.359817 84.3589949,19.6595446 C84.3589949,18.0972423 79.2343482,17.6197362 76.641353,14.4892318 C74.0483577,11.3587275 75.4261461,4.55101063 82.11288,4.55101063 C85.4461388,4.5945468 88.2624955,5.10114129 90.56195,6.0707941 Z" id="路径-2" fill="#3372C0"></path>
            <path d="M91.0639243,15.3393061 C91.0566172,11.5907518 91.4061243,3.93453182 101.855363,4.23058096 C109.395206,4.44420074 112.991144,8.67886385 112.643178,16.9345703 L112.643178,16.9345703 L98.3234023,16.9345703 C99.0364848,19.3727018 100.583731,20.689006 102.96514,20.8834831 C106.898781,21.3550276 109.945978,20.7958282 112.10673,19.2058847 L112.10673,19.2058847 L112.10673,23.0278732 C109.774252,24.7016537 106.891847,25.5789552 103.459513,25.6597776 C94.2758485,25.6597776 91.1559354,20.4680817 91.0675477,16.1792901 L91.0675477,16.1792901 L91.0669346,15.9578377 C91.0665682,15.8814191 91.0660821,15.8024508 91.0656031,15.7210874 Z M101.919501,8.85544543 C99.7833118,8.85544543 98.4546491,10.2912981 97.9335128,13.1630035 L105.905489,13.1630035 C105.384352,10.2912981 104.05569,8.85544543 101.919501,8.85544543 Z" id="形状结合" fill="#3372C0"></path>
            <path d="M88.0654848,25.6605177 L88.4052179,25.6668329 C94.6755672,25.8444853 97.6660526,29.3661524 97.3766741,36.2318343 L97.3766741,36.2318343 L85.4679382,36.2318343 C86.0609581,38.2594543 87.347692,39.3541306 89.3281399,39.5158633 C92.5994688,39.9080133 95.133605,39.442967 96.9305485,38.1207245 L96.9305485,38.1207245 L96.9305485,41.2991996 C94.9907929,42.6911634 92.5937019,43.4207524 89.7392753,43.4879667 C82.1018765,43.4879667 79.5072675,39.1704036 79.4337618,35.6037217 C79.4337618,35.5041215 79.4331808,35.3981521 79.4325219,35.2864258 L79.4316584,34.5518848 C79.4570103,31.3324837 80.0320077,25.4296021 88.4052179,25.6668329 Z M88.4585566,29.5130027 C86.6820408,29.5130027 85.5770869,30.7070989 85.1436949,33.0952914 L91.7734183,33.0952914 C91.3400264,30.7070989 90.2350725,29.5130027 88.4585566,29.5130027 Z" id="形状结合备份" fill="#5E5E5E"></path>
            <g id="编组-2" transform="translate(29.722352, 28.125000)">
                <path d="M9.72892592,17.369426 C15.1020633,17.369426 19.4578518,14.4492854 19.4578518,8.684713 C19.4578518,2.92014064 15.1020633,0 9.72892592,0 C4.3557885,0 0,2.92014064 0,8.684713 C0,14.4492854 4.3557885,17.369426 9.72892592,17.369426 Z" id="椭圆形" fill="#3374B3"></path>
                <ellipse id="椭圆形" fill="#499EF3" cx="9.72892592" cy="8.684713" rx="6.2444823" ry="6.15563954"></ellipse>
            </g>
            <polygon id="路径-6" fill="#5E5E5E" points="52.6649078 26.83125 58.6266282 26.83125 61.698611 35.2541178 65.0781063 26.83125 68.9414939 26.83125 72.0570479 34.72435 75.1351056 26.83125 81.1906718 26.83125 74.6019861 43.6751003 70.7758855 43.6751003 66.9277898 34.72435 63.3128422 43.6751003 59.3820029 43.6751003"></polygon>
            <path d="M105.434852,30.062328 C106.894012,27.683276 108.548273,26.49375 110.397635,26.49375 C112.246998,26.49375 113.46823,27.0375 114.06133,28.125 L111.77345,33.5204948 C110.828487,32.0572677 109.763294,31.6205938 108.577869,32.2104728 C107.392445,32.8003519 106.145304,34.0956239 104.836447,36.096289 L104.836447,30.062328 L105.434852,30.062328 Z" id="路径-7" fill="#5E5E5E"></path>
        </g>
    </g>
</svg>