<?xml version="1.0" encoding="UTF-8"?>
<svg width="720px" height="720px" viewBox="0 0 720 720" version="1.1" xmlns="http://www.w3.org/2000/svg" xmlns:xlink="http://www.w3.org/1999/xlink">
    <title>画板备份</title>
    <g id="画板备份" stroke="none" stroke-width="1" fill="none" fill-rule="evenodd">
        <g id="编组" transform="translate(17.718750, 173.250000)">
            <path d="M247.271692,151.74568 C285.377361,151.74568 316.268108,182.636428 316.268108,220.742096 C316.268108,258.847765 285.377361,289.738512 247.271692,289.738512 L196.638115,289.73768 L196.638643,373.321895 L127.709115,373.321895 L127.709115,153.90863 L152.855115,153.90768 L152.855544,151.74568 L247.271692,151.74568 Z" id="形状结合" fill="#5E5E5E"></path>
            <rect id="矩形" fill="#3372C0" x="0" y="0" width="50.625" height="168.75"></rect>
            <path d="M247.521615,23.5702364 C285.732816,23.5702364 316.709115,45.8342747 316.709115,88.7394333 C316.709115,131.644592 285.732816,153.90863 247.521615,153.90863 C209.310414,153.90863 178.334115,132.523025 178.334115,88.7394333 C178.334115,44.9558419 209.310414,23.5702364 247.521615,23.5702364 Z M247.521615,62.1801055 C233.541907,62.1801055 222.209115,75.0239367 222.209115,90.8676055 C222.209115,106.711274 233.541907,119.555105 247.521615,119.555105 C261.501323,119.555105 272.834115,106.711274 272.834115,90.8676055 C272.834115,75.0239367 261.501323,62.1801055 247.521615,62.1801055 Z" id="形状结合" fill="#5E5E5E"></path>
            <rect id="矩形备份" fill="#3372C0" x="127.709115" y="0" width="50.625" height="168.75"></rect>
            <rect id="矩形备份-2" fill="#5E5E5E" x="596.496615" y="158.9625" width="36.1125" height="101.925"></rect>
            <rect id="矩形" fill="#3372C0" x="47.25" y="60.75" width="84.375" height="40.5"></rect>
            <path d="M319.309679,29.1614274 C316.495998,79.8652134 316.893771,111.800295 320.502999,124.966671 C328.885182,147.041181 338.012588,153.90863 364.188826,153.90863 C381.639651,153.90863 395.530259,146.230747 405.860648,130.87498 L405.860648,153.90863 L450.88062,153.90863 L450.88062,29.1614274 L408.628587,29.1614274 L408.628587,101.25 C397.270611,114.343301 387.738571,120.445003 380.032465,119.555105 C368.473306,118.220259 361.624281,120.889952 361.624281,91.5350288 C361.624281,71.9650799 361.624281,51.1738794 361.624281,29.1614274 L319.309679,29.1614274 Z" id="路径" fill="#3372C0"></path>
            <path d="M543.3717,36.4247646 L543.3717,65.318453 C517.339128,51.3309402 501.721563,48.5398323 496.519005,56.9451292 C488.715168,69.5530746 525.093751,76.7810749 539.524257,94.16817 C553.954762,111.555265 557.765065,153.90863 504.322842,153.90863 C477.14496,154.454866 459.727513,151.675484 452.070504,145.570484 L452.070504,114.811488 C461.953434,121.538324 472.951564,125.044053 485.064894,125.328675 C503.234887,125.755608 506.15397,122.158902 506.15397,117.957267 C506.15397,108.583454 475.406089,105.718417 459.848118,86.9353909 C444.290146,68.1523648 452.556877,27.3060638 492.67728,27.3060638 C512.676833,27.5672808 529.574973,30.6068477 543.3717,36.4247646 Z" id="路径-2" fill="#3372C0"></path>
            <path d="M546.405286,97.0757406 C546.405286,77.4342515 543.273593,23.4609078 611.132178,25.3834858 C656.371235,26.6652044 677.946866,52.0731831 675.85907,101.607422 L675.85907,101.607422 L589.940414,101.607422 C594.218909,116.236211 603.502384,124.134036 617.790838,125.300899 C641.392686,128.130166 659.675867,124.774969 672.640381,115.235308 L672.640381,115.235308 L672.640381,138.167239 C658.645513,148.209922 641.351079,153.473731 620.75708,153.958666 C565.655091,153.958666 546.935612,122.80849 546.405286,97.0757406 Z M611.517004,53.1326726 C598.699871,53.1326726 590.727895,61.7477888 587.601077,78.9780213 L635.432931,78.9780213 C632.306113,61.7477888 624.334137,53.1326726 611.517004,53.1326726 Z" id="形状结合" fill="#3372C0"></path>
            <path d="M476.602571,213.62233 C476.602571,197.287905 473.998164,152.402127 530.431308,154.000998 C568.053403,155.066912 585.996316,176.196914 584.260045,217.391006 L584.260045,217.391006 L512.807629,217.391006 C516.365749,229.556726 524.086152,236.124784 535.96884,237.09518 C555.596813,239.44808 570.80163,236.657802 581.583291,228.724347 L581.583291,228.724347 L581.583291,247.795197 C569.944757,256.14698 555.562211,260.524515 538.435652,260.9278 C492.611259,260.9278 477.043605,235.022422 476.602571,213.62233 Z M530.75134,177.078016 C520.092245,177.078016 513.462521,184.242594 510.86217,198.571748 L550.64051,198.571748 C548.040158,184.242594 541.410435,177.078016 530.75134,177.078016 Z" id="形状结合备份" fill="#5E5E5E"></path>
            <g id="编组-2" transform="translate(178.334115, 168.750000)">
                <path d="M58.3735555,104.216556 C90.6123801,104.216556 116.747111,86.6957121 116.747111,52.108278 C116.747111,17.5208438 90.6123801,0 58.3735555,0 C26.134731,0 0,17.5208438 0,52.108278 C0,86.6957121 26.134731,104.216556 58.3735555,104.216556 Z" id="椭圆形" fill="#3374B3"></path>
                <ellipse id="椭圆形" fill="#499EF3" cx="58.3735555" cy="52.108278" rx="37.4668938" ry="36.9338373"></ellipse>
            </g>
            <polygon id="路径-6" fill="#5E5E5E" points="315.989447 160.9875 351.759769 160.9875 370.191666 211.524707 390.468638 160.9875 413.648963 160.9875 432.342288 208.3461 450.810633 160.9875 487.144031 160.9875 447.611917 262.050602 424.655313 262.050602 401.566739 208.3461 379.877053 262.050602 356.292018 262.050602"></polygon>
            <path d="M632.609115,180.373968 C641.36407,166.099656 651.289636,158.9625 662.385813,158.9625 C673.48199,158.9625 680.809379,162.225 684.367981,168.75 L670.640698,201.122969 C664.970923,192.343606 658.579763,189.723563 651.467217,193.262837 C644.354671,196.802111 636.871826,204.573744 629.018681,216.577734 L629.018681,180.373968 L632.609115,180.373968 Z" id="路径-7" fill="#5E5E5E"></path>
        </g>
    </g>
</svg>